<svg width="16" height="16" viewBox="0 0 16 16" fill="none" xmlns="http://www.w3.org/2000/svg">
<path d="M13.3118 0.218958L8.72743 0.195388C8.61742 0.194937 8.50841 0.216273 8.40669 0.258164C8.30497 0.300054 8.21255 0.36167 8.13476 0.439459C8.05697 0.517247 7.99535 0.609669 7.95346 0.711391C7.91157 0.813112 7.89024 0.922123 7.89069 1.03213C7.89134 1.25229 7.97909 1.46323 8.13476 1.61891C8.29044 1.77458 8.50139 1.86233 8.72154 1.86298L12.9347 1.88066L0.919795 13.8956C0.763515 14.0519 0.675718 14.2638 0.675718 14.4848C0.675718 14.7059 0.763515 14.9178 0.919796 15.0741C1.07608 15.2304 1.28804 15.3182 1.50905 15.3182C1.73006 15.3182 1.94203 15.2304 2.09831 15.0741L14.1486 3.02382L14.1427 7.28413C14.1422 7.39414 14.1636 7.50315 14.2055 7.60487C14.2474 7.7066 14.309 7.79902 14.3868 7.87681C14.4646 7.95459 14.557 8.01621 14.6587 8.0581C14.7604 8.09999 14.8694 8.12133 14.9794 8.12088C15.0894 8.12133 15.1985 8.09999 15.3002 8.0581C15.4019 8.01621 15.4943 7.95459 15.5721 7.87681C15.6499 7.79902 15.7115 7.7066 15.7534 7.60487C15.7953 7.50315 15.8166 7.39414 15.8162 7.28413L15.8103 2.7174C15.8099 2.0549 15.5465 1.41965 15.0781 0.951191C14.6096 0.482731 13.9743 0.219371 13.3118 0.218958Z" fill="#0A0A0A"/>
</svg>
