<svg width="12" height="12" viewBox="0 0 12 12" fill="none" xmlns="http://www.w3.org/2000/svg">
<g clip-path="url(#clip0_10841_1525)">
<path d="M10.9659 2.32035C10.8525 2.20652 10.6987 2.14258 10.5384 2.14258C10.3781 2.14258 10.2243 2.20652 10.1109 2.32035L4.49228 7.96273L1.89668 5.35617C1.84091 5.29818 1.77419 5.25192 1.70043 5.2201C1.62666 5.18828 1.54732 5.17153 1.46704 5.17083C1.38676 5.17013 1.30715 5.18549 1.23284 5.21602C1.15854 5.24655 1.09103 5.29164 1.03426 5.34864C0.977496 5.40565 0.932601 5.47344 0.902201 5.54806C0.871801 5.62268 0.856503 5.70263 0.857201 5.78325C0.857898 5.86387 0.874577 5.94354 0.906264 6.01762C0.937951 6.09169 0.984012 6.15869 1.04176 6.2147L4.06482 9.25052C4.1782 9.36435 4.33196 9.42829 4.49228 9.42829C4.6526 9.42829 4.80636 9.36435 4.91974 9.25052L10.9659 3.17888C11.0792 3.06502 11.1429 2.91061 11.1429 2.74961C11.1429 2.58861 11.0792 2.43421 10.9659 2.32035Z" fill="white"/>
</g>
<defs>
<clipPath id="clip0_10841_1525">
<rect width="10.2857" height="10.2857" fill="white" transform="translate(0.857178 0.856934)"/>
</clipPath>
</defs>
</svg>
