<svg width="20" height="20" viewBox="0 0 20 20" fill="none" xmlns="http://www.w3.org/2000/svg">
<path d="M14.9998 5.00009C14.8436 4.84387 14.6317 4.7561 14.4107 4.7561C14.1897 4.7561 13.9778 4.84387 13.8215 5.00009L9.99985 8.82176L6.17818 5.00009C6.02191 4.84387 5.80998 4.7561 5.58901 4.7561C5.36804 4.7561 5.15612 4.84387 4.99985 5.00009C4.84362 5.15637 4.75586 5.36829 4.75586 5.58926C4.75586 5.81023 4.84362 6.02215 4.99985 6.17843L8.82152 10.0001L4.99985 13.8218C4.84362 13.978 4.75586 14.19 4.75586 14.4109C4.75586 14.6319 4.84362 14.8438 4.99985 15.0001C5.15612 15.1563 5.36804 15.2441 5.58901 15.2441C5.80998 15.2441 6.02191 15.1563 6.17818 15.0001L9.99985 11.1784L13.8215 15.0001C13.9778 15.1563 14.1897 15.2441 14.4107 15.2441C14.6317 15.2441 14.8436 15.1563 14.9998 15.0001C15.1561 14.8438 15.2438 14.6319 15.2438 14.4109C15.2438 14.19 15.1561 13.978 14.9998 13.8218L11.1782 10.0001L14.9998 6.17843C15.1561 6.02215 15.2438 5.81023 15.2438 5.58926C15.2438 5.36829 15.1561 5.15637 14.9998 5.00009Z" fill="#0A0A0A"/>
</svg>
