<svg width="158" height="42" viewBox="0 0 158 42" fill="none" xmlns="http://www.w3.org/2000/svg">
<g clip-path="url(#clip0_11056_1461)">
<path d="M125.757 15.0046L127.406 14.5025L128.178 12.622L129.645 13.79H130.855C131.414 13.79 131.965 13.6091 132.444 13.3153C132.828 13.0788 133.246 12.8987 133.687 12.7797C134.811 12.4762 136.066 12.6109 137.103 13.1502C137.537 13.3748 138.023 13.4938 138.485 13.4938L145.727 13.1643C147.737 13.1643 149.5 15.0463 149.5 17.1923V29.3798H147.358L144.93 22.5244H137.01C136.311 27.0586 135.396 29.2274 135.352 29.3798H133.054L131.199 19.8234L124.351 19.4783L123.5 17.2392L125.618 16.084L125.757 15.0046Z" fill="white"/>
<path d="M143.853 24.0476L144.568 26.0641C144.407 26.8106 144.188 27.7101 143.88 28.8217L143.724 29.3796H140.309L141.07 26.3327L139.357 24.0476H143.853ZM130.261 22.9849L131.209 27.8654L129.744 29.3796H126.598L130.261 22.9849Z" fill="white"/>
</g>
<path d="M9.692 28.16C8.88133 28.16 8.14533 28.0747 7.484 27.904C6.83333 27.7333 6.24667 27.4933 5.724 27.184C5.212 26.864 4.74267 26.4907 4.316 26.064L5.804 24.08C6.476 24.752 7.148 25.2213 7.82 25.488C8.50267 25.744 9.18 25.872 9.852 25.872C10.1613 25.872 10.46 25.84 10.748 25.776C11.0467 25.7013 11.2867 25.584 11.468 25.424C11.6493 25.264 11.74 25.056 11.74 24.8C11.74 24.6293 11.692 24.4853 11.596 24.368C11.5 24.24 11.3667 24.1333 11.196 24.048C11.0253 23.9627 10.8227 23.888 10.588 23.824C10.364 23.76 10.124 23.7067 9.868 23.664C9.62267 23.6107 9.36133 23.5627 9.084 23.52C8.412 23.4133 7.81467 23.264 7.292 23.072C6.78 22.88 6.348 22.64 5.996 22.352C5.644 22.064 5.372 21.728 5.18 21.344C4.99867 20.96 4.908 20.5227 4.908 20.032C4.908 19.5093 5.03067 19.0347 5.276 18.608C5.532 18.1707 5.87867 17.8027 6.316 17.504C6.75333 17.1947 7.26 16.96 7.836 16.8C8.412 16.6293 9.02 16.544 9.66 16.544C10.428 16.544 11.0947 16.6187 11.66 16.768C12.236 16.9173 12.7373 17.1307 13.164 17.408C13.5907 17.6747 13.948 17.9893 14.236 18.352L12.716 20.08C12.4493 19.8133 12.1507 19.5893 11.82 19.408C11.4893 19.2267 11.1373 19.088 10.764 18.992C10.4013 18.896 10.0333 18.848 9.66 18.848C9.28667 18.848 8.956 18.8907 8.668 18.976C8.38 19.0507 8.15067 19.1627 7.98 19.312C7.80933 19.4613 7.724 19.648 7.724 19.872C7.724 20.064 7.79333 20.2293 7.932 20.368C8.07067 20.496 8.252 20.608 8.476 20.704C8.71067 20.8 8.972 20.88 9.26 20.944C9.548 20.9973 9.836 21.0453 10.124 21.088C10.732 21.184 11.3027 21.312 11.836 21.472C12.3693 21.6213 12.8387 21.824 13.244 22.08C13.6493 22.3253 13.964 22.6453 14.188 23.04C14.4227 23.424 14.54 23.904 14.54 24.48C14.54 25.2587 14.3267 25.9253 13.9 26.48C13.484 27.024 12.9133 27.44 12.188 27.728C11.4627 28.016 10.6307 28.16 9.692 28.16ZM23.4166 28.16C22.5313 28.16 21.7046 28.0213 20.9366 27.744C20.1793 27.456 19.5126 27.056 18.9366 26.544C18.3713 26.032 17.934 25.424 17.6246 24.72C17.3153 24.0053 17.1606 23.216 17.1606 22.352C17.1606 21.5093 17.3206 20.736 17.6406 20.032C17.9713 19.328 18.4193 18.72 18.9846 18.208C19.55 17.696 20.2166 17.296 20.9846 17.008C21.7526 16.72 22.5793 16.576 23.4646 16.576C24.0726 16.576 24.6593 16.6507 25.2246 16.8C25.8006 16.9493 26.334 17.1573 26.8246 17.424C27.3153 17.6907 27.7313 17.9947 28.0726 18.336L26.4566 20.352C26.2006 20.1067 25.9233 19.8933 25.6246 19.712C25.326 19.52 24.99 19.3707 24.6166 19.264C24.2433 19.1467 23.8326 19.088 23.3846 19.088C22.9473 19.088 22.5206 19.1627 22.1046 19.312C21.6886 19.4613 21.3206 19.68 21.0006 19.968C20.6806 20.2453 20.4246 20.592 20.2326 21.008C20.0513 21.4133 19.9606 21.872 19.9606 22.384C19.9606 22.896 20.0566 23.3547 20.2486 23.76C20.4406 24.1653 20.702 24.512 21.0326 24.8C21.374 25.0773 21.7686 25.2907 22.2166 25.44C22.6646 25.5893 23.15 25.664 23.6726 25.664C24.1313 25.664 24.5473 25.6 24.9206 25.472C25.294 25.344 25.63 25.1893 25.9286 25.008C26.2273 24.816 26.494 24.6133 26.7286 24.4L28.0246 26.496C27.7366 26.7733 27.3526 27.04 26.8726 27.296C26.3926 27.552 25.854 27.76 25.2566 27.92C24.6593 28.08 24.046 28.16 23.4166 28.16ZM29.7435 28L34.6235 16.8H37.0395L41.8875 28H39.1035L36.5115 21.936C36.4155 21.7013 36.3195 21.4667 36.2235 21.232C36.1382 20.9973 36.0528 20.7573 35.9675 20.512C35.8822 20.2667 35.8022 20.0267 35.7275 19.792C35.6528 19.5573 35.5835 19.3333 35.5195 19.12L36.0635 19.104C35.9995 19.36 35.9248 19.6053 35.8395 19.84C35.7648 20.0747 35.6848 20.3093 35.5995 20.544C35.5142 20.768 35.4235 20.9973 35.3275 21.232C35.2315 21.4667 35.1355 21.7067 35.0395 21.952L32.4475 28H29.7435ZM32.0315 25.92L32.9115 23.872H38.6715L39.3275 25.92H32.0315ZM44.5682 28V16.8H47.0002L51.4802 23.312L49.8162 23.296L54.3442 16.8H56.7122V28H54.0722V24.448C54.0722 23.52 54.0936 22.672 54.1362 21.904C54.1896 21.1253 54.2749 20.3467 54.3923 19.568L54.6802 20.432L51.1442 25.28H50.0882L46.5842 20.432L46.8882 19.568C47.0056 20.3253 47.0856 21.088 47.1282 21.856C47.1816 22.6133 47.2082 23.4773 47.2082 24.448V28H44.5682ZM59.3991 28L64.2791 16.8H66.6951L71.5431 28H68.7591L66.1671 21.936C66.0711 21.7013 65.9751 21.4667 65.8791 21.232C65.7938 20.9973 65.7085 20.7573 65.6231 20.512C65.5378 20.2667 65.4578 20.0267 65.3831 19.792C65.3085 19.5573 65.2391 19.3333 65.1751 19.12L65.7191 19.104C65.6551 19.36 65.5805 19.6053 65.4951 19.84C65.4205 20.0747 65.3405 20.3093 65.2551 20.544C65.1698 20.768 65.0791 20.9973 64.9831 21.232C64.8871 21.4667 64.7911 21.7067 64.6951 21.952L62.1031 28H59.3991ZM61.6871 25.92L62.5671 23.872H68.3271L68.9831 25.92H61.6871ZM79.4154 28.16C78.53 28.16 77.7034 28.0213 76.9354 27.744C76.178 27.456 75.5114 27.056 74.9354 26.544C74.37 26.032 73.9327 25.424 73.6234 24.72C73.314 24.0053 73.1594 23.216 73.1594 22.352C73.1594 21.5093 73.3194 20.736 73.6394 20.032C73.97 19.328 74.418 18.72 74.9834 18.208C75.5487 17.696 76.2154 17.296 76.9834 17.008C77.7514 16.72 78.578 16.576 79.4634 16.576C80.0714 16.576 80.658 16.6507 81.2234 16.8C81.7994 16.9493 82.3327 17.1573 82.8234 17.424C83.314 17.6907 83.73 17.9947 84.0714 18.336L82.4554 20.352C82.1994 20.1067 81.922 19.8933 81.6234 19.712C81.3247 19.52 80.9887 19.3707 80.6154 19.264C80.242 19.1467 79.8314 19.088 79.3834 19.088C78.946 19.088 78.5194 19.1627 78.1034 19.312C77.6874 19.4613 77.3194 19.68 76.9994 19.968C76.6794 20.2453 76.4234 20.592 76.2314 21.008C76.05 21.4133 75.9594 21.872 75.9594 22.384C75.9594 22.896 76.0554 23.3547 76.2474 23.76C76.4394 24.1653 76.7007 24.512 77.0314 24.8C77.3727 25.0773 77.7674 25.2907 78.2154 25.44C78.6634 25.5893 79.1487 25.664 79.6714 25.664C80.13 25.664 80.546 25.6 80.9194 25.472C81.2927 25.344 81.6287 25.1893 81.9274 25.008C82.226 24.816 82.4927 24.6133 82.7274 24.4L84.0234 26.496C83.7354 26.7733 83.3514 27.04 82.8714 27.296C82.3914 27.552 81.8527 27.76 81.2554 27.92C80.658 28.08 80.0447 28.16 79.4154 28.16ZM92.7822 28.16C91.8969 28.16 91.0702 28.0213 90.3022 27.744C89.5449 27.456 88.8782 27.056 88.3022 26.544C87.7369 26.032 87.2996 25.424 86.9902 24.72C86.6809 24.0053 86.5262 23.216 86.5262 22.352C86.5262 21.5093 86.6862 20.736 87.0062 20.032C87.3369 19.328 87.7849 18.72 88.3502 18.208C88.9156 17.696 89.5822 17.296 90.3502 17.008C91.1182 16.72 91.9449 16.576 92.8302 16.576C93.4382 16.576 94.0249 16.6507 94.5902 16.8C95.1662 16.9493 95.6996 17.1573 96.1902 17.424C96.6809 17.6907 97.0969 17.9947 97.4382 18.336L95.8222 20.352C95.5662 20.1067 95.2889 19.8933 94.9902 19.712C94.6916 19.52 94.3556 19.3707 93.9822 19.264C93.6089 19.1467 93.1982 19.088 92.7502 19.088C92.3129 19.088 91.8862 19.1627 91.4702 19.312C91.0542 19.4613 90.6862 19.68 90.3662 19.968C90.0462 20.2453 89.7902 20.592 89.5982 21.008C89.4169 21.4133 89.3262 21.872 89.3262 22.384C89.3262 22.896 89.4222 23.3547 89.6142 23.76C89.8062 24.1653 90.0676 24.512 90.3982 24.8C90.7396 25.0773 91.1342 25.2907 91.5822 25.44C92.0302 25.5893 92.5156 25.664 93.0382 25.664C93.4969 25.664 93.9129 25.6 94.2862 25.472C94.6596 25.344 94.9956 25.1893 95.2942 25.008C95.5929 24.816 95.8596 24.6133 96.0942 24.4L97.3902 26.496C97.1022 26.7733 96.7182 27.04 96.2382 27.296C95.7582 27.552 95.2196 27.76 94.6222 27.92C94.0249 28.08 93.4116 28.16 92.7822 28.16ZM99.1091 28L103.989 16.8H106.405L111.253 28H108.469L105.877 21.936C105.781 21.7013 105.685 21.4667 105.589 21.232C105.504 20.9973 105.418 20.7573 105.333 20.512C105.248 20.2667 105.168 20.0267 105.093 19.792C105.018 19.5573 104.949 19.3333 104.885 19.12L105.429 19.104C105.365 19.36 105.29 19.6053 105.205 19.84C105.13 20.0747 105.05 20.3093 104.965 20.544C104.88 20.768 104.789 20.9973 104.693 21.232C104.597 21.4667 104.501 21.7067 104.405 21.952L101.813 28H99.1091ZM101.397 25.92L102.277 23.872H108.037L108.693 25.92H101.397Z" fill="white"/>
<defs>
<clipPath id="clip0_11056_1461">
<rect width="26" height="26" fill="white" transform="translate(123.5 8)"/>
</clipPath>
</defs>
</svg>
