<svg width="20" height="20" viewBox="0 0 20 20" fill="none" xmlns="http://www.w3.org/2000/svg">
<path d="M19.9829 1.68601V5.01934C19.9829 5.24036 19.8951 5.45232 19.7388 5.6086C19.5825 5.76488 19.3705 5.85268 19.1495 5.85268C18.9285 5.85268 18.7166 5.76488 18.5603 5.6086C18.404 5.45232 18.3162 5.24036 18.3162 5.01934V2.88351L13.8995 7.27684C13.7419 7.42826 13.5312 7.51171 13.3127 7.50922C13.0941 7.50672 12.8853 7.41849 12.7312 7.26352C12.5772 7.10856 12.4901 6.89926 12.4888 6.68072C12.4876 6.46219 12.5722 6.25191 12.7245 6.09518L17.1579 1.68601H14.9829C14.7619 1.68601 14.5499 1.59821 14.3936 1.44193C14.2373 1.28565 14.1495 1.07369 14.1495 0.852678C14.1495 0.631665 14.2373 0.419703 14.3936 0.263423C14.5499 0.107142 14.7619 0.019345 14.9829 0.019345H18.3162C18.7582 0.019345 19.1822 0.19494 19.4947 0.5075C19.8073 0.820061 19.9829 1.24398 19.9829 1.68601ZM19.2287 13.9685C19.7116 14.4528 19.9828 15.1088 19.9828 15.7927C19.9828 16.4766 19.7116 17.1326 19.2287 17.6168L18.4687 18.4918C11.6429 25.0235 -4.96463 8.42101 1.4687 1.57518L2.4262 0.741845C2.91128 0.272487 3.56149 0.0127291 4.23644 0.0186539C4.91139 0.0245786 5.55694 0.295711 6.0337 0.773512C6.0587 0.799345 7.60287 2.80601 7.60287 2.80601C8.06093 3.28722 8.31599 3.9264 8.31505 4.59076C8.31412 5.25513 8.05727 5.89359 7.59787 6.37351L6.63204 7.58768C7.16608 8.88527 7.95125 10.0645 8.94246 11.0578C9.93366 12.051 11.1114 12.8385 12.4079 13.3752L13.6287 12.4043C14.1086 11.9452 14.7469 11.6885 15.411 11.6876C16.0752 11.6866 16.7142 11.9415 17.1954 12.3993C17.1954 12.3993 19.2029 13.9435 19.2287 13.9685ZM18.0829 15.1802C18.0829 15.1802 16.0887 13.6452 16.0629 13.6202C15.8912 13.45 15.6592 13.3544 15.4175 13.3544C15.1757 13.3544 14.9437 13.45 14.772 13.6202C14.7495 13.6418 13.0687 14.9818 13.0687 14.9818C12.9554 15.072 12.8206 15.1311 12.6776 15.1533C12.5345 15.1755 12.3881 15.1601 12.2529 15.1085C10.5722 14.4835 9.04569 13.5043 7.77691 12.2372C6.50813 10.9702 5.52681 9.44498 4.89954 7.76518C4.84466 7.62861 4.82693 7.47995 4.84816 7.3343C4.86938 7.18866 4.9288 7.05124 5.02037 6.93601C5.02037 6.93601 6.35954 5.25518 6.38204 5.23268C6.55226 5.061 6.64777 4.82902 6.64777 4.58726C6.64777 4.3455 6.55226 4.11352 6.38204 3.94184C6.35704 3.91684 4.82204 1.92184 4.82204 1.92184C4.64789 1.76549 4.42054 1.68167 4.18657 1.68756C3.95261 1.69344 3.72976 1.7886 3.5637 1.95351L2.6062 2.78684C-2.09713 8.43851 12.297 22.0352 17.2495 17.3552L18.0095 16.4802C18.1887 16.3158 18.2966 16.0879 18.3103 15.8451C18.324 15.6023 18.2424 15.3637 18.0829 15.1802Z" fill="white"/>
</svg>
